<?xml version="1.0" standalone="no"?>
<!DOCTYPE svg PUBLIC "-//W3C//DTD SVG 20010904//EN"
 "http://www.w3.org/TR/2001/REC-SVG-20010904/DTD/svg10.dtd">
<svg version="1.0" xmlns="http://www.w3.org/2000/svg"
 width="1200.000000pt" height="1200.000000pt" viewBox="0 0 1200.000000 1200.000000"
 preserveAspectRatio="xMidYMid meet">
<metadata>
Created by potrace 1.14, written by Peter Selinger 2001-2017
</metadata>
<g transform="translate(0.000000,1200.000000) scale(0.100000,-0.100000)"
fill="#000000" stroke="none">
<path d="M1130 10612 l0 -227 315 -315 315 -315 2 -3815 3 -3815 28 -57 c34
-68 108 -139 175 -165 45 -17 183 -18 3857 -21 l3810 -2 320 -320 320 -320
227 0 228 0 0 228 0 227 -4573 4573 -4572 4572 -228 0 -227 0 0 -228z m2000
-2227 l725 -725 -728 0 -727 0 0 725 c0 399 1 725 3 725 1 0 328 -326 727
-725z m1198 -2332 l2 -963 -965 0 -965 0 0 965 0 965 963 -2 962 -3 3 -962z
m1372 -238 l725 -725 -728 0 -727 0 0 725 c0 399 1 725 3 725 1 0 328 -326
727 -725z m-1372 -2327 l-3 -963 -960 0 -960 0 -3 963 -2 962 965 0 965 0 -2
-962z m2562 -3 l0 -965 -960 0 -960 0 0 965 0 965 960 0 960 0 0 -965z m1383
-963 c-395 -1 -724 0 -730 3 -10 3 -13 159 -13 732 l0 728 730 -730 730 -730
-717 -3z"/>
<path d="M3475 9900 l320 -320 267 0 268 0 0 -268 0 -267 320 -320 320 -320 0
588 0 587 960 0 960 0 0 -960 0 -960 -587 0 -588 0 320 -320 320 -320 267 0
268 0 0 -268 0 -267 320 -320 320 -320 2 585 3 585 963 3 962 2 0 -965 0 -965
-587 0 -588 0 320 -320 320 -320 267 0 268 0 0 -268 0 -267 320 -320 320 -320
-2 3355 -3 3355 -25 50 c-35 72 -105 138 -173 164 l-58 21 -3342 0 -3342 0
320 -320z m5985 -1280 l0 -960 -965 0 -965 0 0 960 0 960 965 0 965 0 0 -960z"/>
</g>
</svg>
